<svg id="Layer_1" data-name="Layer 1" xmlns="http://www.w3.org/2000/svg" viewBox="0 0 1000 1000"><defs><style>.cls-1{fill:#f3f3f3;}.cls-2{fill:#fff;}.cls-3{fill:#ccc;}.cls-4{fill:#e6e6e5;}.cls-5,.cls-9{fill:#f16467;}.cls-6{fill:#403e56;}.cls-7{fill:#d6ac7f;}.cls-8{fill:#302e41;}.cls-9{opacity:0.38;font-size:114.74px;font-family:HindSiliguri-Bold, Hind Siliguri;font-weight:700;}</style></defs><title>ntc</title><path class="cls-1" d="M596.16,559.16,240.73,650.69a47,47,0,0,1-57.17-33.76L76.07,199.52a47,47,0,0,1,33.76-57.17L440.49,57.2l84.64,37.88L629.91,502A47,47,0,0,1,596.16,559.16Z"/><path class="cls-2" d="M113.2,155.43a33.47,33.47,0,0,0-24,40.71L196.65,613.56a33.46,33.46,0,0,0,40.71,24l355.42-91.53a33.46,33.46,0,0,0,24-40.71L513.66,104.76l-74.38-33.3Z"/><path class="cls-1" d="M524.22,97.24l-55,14.16a15.63,15.63,0,0,1-19-11.24L439.71,59.53a1,1,0,0,1,.71-1.19,1,1,0,0,1,.64.06l83.32,37a1,1,0,0,1,.49,1.29A1,1,0,0,1,524.22,97.24Z"/><path class="cls-3" d="M495.28,453.7,333.46,495.38a7.82,7.82,0,0,1-3.9-15.15h0l161.82-41.67a7.82,7.82,0,1,1,3.9,15.14Z"/><path class="cls-3" d="M533.09,471.21,340,520.93a7.82,7.82,0,0,1-3.9-15.15l193.05-49.71a7.82,7.82,0,1,1,3.9,15.14Z"/><circle id="a597741b-ffcf-4aba-98b0-6652ef5d57c9" class="cls-4" cx="267.42" cy="517.93" r="27.63" transform="translate(-268.17 747.96) rotate(-85.93)"/><path class="cls-2" d="M478.08,381.39,263.16,436.72a24.21,24.21,0,0,1-29.44-17.4l-45-175a24.21,24.21,0,0,1,17.39-29.45L421,159.59A24.22,24.22,0,0,1,450.43,177l45,175A24.21,24.21,0,0,1,478.08,381.39Z"/><path class="cls-4" d="M478.08,381.39,263.16,436.72a24.21,24.21,0,0,1-29.44-17.4l-45-175a24.21,24.21,0,0,1,17.39-29.45L421,159.59A24.22,24.22,0,0,1,450.43,177l45,175A24.21,24.21,0,0,1,478.08,381.39ZM206.78,217.67a21.36,21.36,0,0,0-15.35,26l45,175a21.37,21.37,0,0,0,26,15.35l214.91-55.32a21.36,21.36,0,0,0,15.34-26l-45-175a21.36,21.36,0,0,0-26-15.34Z"/><path id="b056fd3f-f1a0-44f0-b006-deff0bee637d-333" class="cls-1" d="M410.08,218.42,301.62,246.34a3.89,3.89,0,0,1-4.71-2.44,3.75,3.75,0,0,1,2.44-4.7l.19,0L410,210.72c4.46,2.26,3.29,6.89.13,7.7Z"/><path id="f1ea6668-a825-428d-96fe-a2c4e1b5a672-334" class="cls-1" d="M415,237.45,306.51,265.37a3.88,3.88,0,0,1-4.7-2.45,3.73,3.73,0,0,1,2.44-4.69l.19-.06,110.41-28.42c4.46,2.26,3.29,6.88.13,7.7Z"/><path id="ee9aa382-a9c9-40d0-8ed3-22ec2dd616d6-335" class="cls-4" d="M285.85,282.23l-33.1,8.53a4.21,4.21,0,0,1-5.12-3l-10.06-39.06a4.21,4.21,0,0,1,3-5.13L273.7,235a4.22,4.22,0,0,1,5.13,3l10.05,39.06a4.21,4.21,0,0,1-3,5.12Z"/><path id="be954d2b-d8b8-4d26-80a0-a319e99a4b10-336" class="cls-1" d="M424.69,276.48,259.15,319.09a3.88,3.88,0,0,1-4.7-2.44,3.74,3.74,0,0,1,2.44-4.7l.19-.05,167.49-43.11c4.46,2.26,3.28,6.88.12,7.69Z"/><path id="baaae9e4-1b4d-40c2-8a9d-f2abb078b489-337" class="cls-1" d="M429.59,295.51,264.05,338.12a3.88,3.88,0,0,1-4.7-2.44,3.74,3.74,0,0,1,2.44-4.7l.19-.05,167.48-43.11c4.46,2.26,3.29,6.88.13,7.69Z"/><path id="a91bf4c9-37f6-4391-92ed-1882bd0ce21c-338" class="cls-1" d="M434.48,314.53,269,357.14a3.89,3.89,0,0,1-4.71-2.44,3.75,3.75,0,0,1,2.44-4.7l.2-.05,167.48-43.12c4.46,2.26,3.29,6.89.12,7.7Z"/><path id="efb98e07-468b-4c85-9a64-ee4cc5493d6f-339" class="cls-1" d="M439.38,333.56,273.85,376.17a3.89,3.89,0,0,1-4.71-2.44,3.75,3.75,0,0,1,2.44-4.7l.2,0,167.48-43.12C443.72,328.12,442.54,332.75,439.38,333.56Z"/><path id="aeb1db98-32e5-40b8-ab89-fdad6a3263dc-340" class="cls-1" d="M444.28,352.58,278.74,395.19a3.88,3.88,0,0,1-4.7-2.44,3.74,3.74,0,0,1,2.44-4.7l.19-.05,167.48-43.12C448.61,347.14,447.44,351.77,444.28,352.58Z"/><path id="be265de5-288f-49a7-867d-c42e7cdbf4db-341" class="cls-2" d="M269.46,527.62a2.91,2.91,0,0,1-1.82-.13h0l-7.53-3.19a2.89,2.89,0,0,1,2.24-5.32h0l4.88,2.07,6.39-15a2.88,2.88,0,0,1,3.78-1.53h0l0,.1,0-.1a2.88,2.88,0,0,1,1.53,3.78L271.4,526a2.86,2.86,0,0,1-1.94,1.66Z"/><path class="cls-4" d="M732.48,718.23h-367a47,47,0,0,1-46.94-47v-431a47,47,0,0,1,46.94-46.95H706.91l72.52,57.8V671.28A47,47,0,0,1,732.48,718.23Z"/><path class="cls-2" d="M365.46,206.82A33.47,33.47,0,0,0,332,240.25v431a33.47,33.47,0,0,0,33.43,33.43h367a33.46,33.46,0,0,0,33.43-33.43V257.61l-63.72-50.79Z"/><path class="cls-5" d="M661.1,332.15H494a7.82,7.82,0,0,1,0-15.63H661.1a7.82,7.82,0,1,1,0,15.63Z"/><path class="cls-5" d="M693.34,358.54H494a7.82,7.82,0,1,1,0-15.64H693.34a7.82,7.82,0,0,1,0,15.64Z"/><path class="cls-3" d="M661.1,434.75H494a7.82,7.82,0,0,0,0,15.64H661.1a7.82,7.82,0,0,0,0-15.64Z"/><path class="cls-3" d="M693.35,461.14H494a7.82,7.82,0,0,0,0,15.63H693.35a7.82,7.82,0,0,0,0-15.63Z"/><path class="cls-3" d="M661.1,568.63H494A7.82,7.82,0,0,1,494,553H661.1a7.82,7.82,0,0,1,0,15.63Z"/><path class="cls-3" d="M693.34,595H494a7.82,7.82,0,0,1,0-15.64H693.34a7.82,7.82,0,0,1,0,15.64Z"/><circle id="abdb8e2f-a218-463c-85f4-c869fef49971" class="cls-5" cx="424.41" cy="337.53" r="27.63"/><path id="ba7dbbd6-0052-44b1-a552-47a8298b8d3e-342" class="cls-2" d="M421.67,348.07a2.83,2.83,0,0,1-1.72-.58l0,0-6.49-5a2.88,2.88,0,1,1,3.5-4.58h0l4.2,3.23,9.94-13a2.89,2.89,0,0,1,4.05-.53h0l-.06.08.06-.08a2.88,2.88,0,0,1,.53,4L424,346.94a2.86,2.86,0,0,1-2.29,1.12Z"/><path class="cls-3" d="M454.88,455.76a27.62,27.62,0,0,1-27.62,27.64h0a5.56,5.56,0,0,1-.71,0,27.63,27.63,0,1,1,28.33-27.62Z"/><circle id="e4a71040-498e-4958-ad41-c2d79154b8f7" class="cls-3" cx="424.41" cy="574.01" r="27.63"/><path class="cls-3" d="M778,253H721.21a15.63,15.63,0,0,1-15.63-15.63h0v-42a1,1,0,0,1,1-1,.93.93,0,0,1,.6.21l71.46,56.61a1,1,0,0,1,.16,1.37A1,1,0,0,1,778,253Z"/><path class="cls-5" d="M454.88,455.76a27.62,27.62,0,0,1-27.62,27.64h0a5.56,5.56,0,0,1-.71,0,59.8,59.8,0,0,1,5.36-54.86A27.64,27.64,0,0,1,454.88,455.76Z"/><path class="cls-5" d="M486.18,442.58a7.85,7.85,0,0,1,7.82-7.83h41.64a59.44,59.44,0,0,1,5.14,15.64H494A7.83,7.83,0,0,1,486.18,442.58Z"/><path class="cls-5" d="M541.74,461.14a59.33,59.33,0,0,1-2.07,15.63H494a7.82,7.82,0,0,1,0-15.63h47.76Z"/><path class="cls-6" d="M644.77,557.56A8.53,8.53,0,0,1,633,560.4l-99.59-60.74a8.54,8.54,0,0,1,8.89-14.58l99.59,60.75A8.54,8.54,0,0,1,644.77,557.56Z"/><path class="cls-6" d="M545.18,496.81A68.28,68.28,0,1,1,522.45,403h0A68.37,68.37,0,0,1,545.18,496.81Zm-102-62.22a51.21,51.21,0,1,0,70.39-17A51.21,51.21,0,0,0,443.17,434.59Z"/><circle class="cls-7" cx="763.96" cy="437.27" r="34.94"/><path class="cls-7" d="M761.7,633.14a15.65,15.65,0,0,1,10.12-19.68,15,15,0,0,1,1.72-.45,16.19,16.19,0,0,1,2.08-.26l36.8-59.07-33.62-32a13.42,13.42,0,0,1,18.49-19.45l.18.17,46.42,45.77.09.12a12.16,12.16,0,0,1-.85,14.49l-51.57,61a13.06,13.06,0,0,1,.39,1.49,15.65,15.65,0,0,1-12.29,18.41,14.91,14.91,0,0,1-1.76.25q-.66.06-1.32.06A15.71,15.71,0,0,1,761.7,633.14Z"/><polygon class="cls-7" points="706.41 923.54 688.97 923.54 680.68 856.27 706.42 856.27 706.41 923.54"/><path class="cls-8" d="M710.86,940.44H654.63v-.71a21.89,21.89,0,0,1,21.88-21.89h34.35Z"/><polygon class="cls-7" points="879.76 899.42 864.78 908.35 823.23 854.79 845.35 841.62 879.76 899.42"/><path class="cls-8" d="M892.23,911.67l-48.32,28.77-.36-.61a21.88,21.88,0,0,1,7.61-30h0l29.51-17.57Z"/><path class="cls-8" d="M678.48,893.91c-11.69-137.57-18.64-265.37,24.07-317.5l.33-.41,71.88,28.75.12.26c.24.53,24.14,53.11,18.57,88.48L811.18,775,869,871.83a6.39,6.39,0,0,1-2.21,8.78,5.15,5.15,0,0,1-.7.36L841,892a6.45,6.45,0,0,1-8-2.51L770,787l-35.52-78.65a2.14,2.14,0,0,0-4.07.65L710.75,894.05a6.39,6.39,0,0,1-6.36,5.73H684.86A6.45,6.45,0,0,1,678.48,893.91Z"/><path class="cls-5" d="M702.8,577.5l-.35-.17-.05-.37c-2.69-18.8.49-39.68,9.45-62.06A49.27,49.27,0,0,1,769,485.39h0a49.24,49.24,0,0,1,31.38,24.13,48.68,48.68,0,0,1,3.37,39,692.41,692.41,0,0,1-26.07,64.2l-.31.64Z"/><path class="cls-7" d="M624.38,530.69a15.65,15.65,0,0,1,22,2.58,15.94,15.94,0,0,1,1,1.46,14.09,14.09,0,0,1,1,1.85l68.22,13.79,18.17-42.68a13.42,13.42,0,0,1,24.69,10.51l-.1.22L732.7,577.93l-.07.12a12.16,12.16,0,0,1-13.87,4.29l-75.18-27a15,15,0,0,1-1.26.88,15.67,15.67,0,0,1-22.4-6.62c-.19-.4-.36-.81-.52-1.22A15.7,15.7,0,0,1,624.38,530.69Z"/><path class="cls-8" d="M890.18,474.68c-3.36-6-8.27-11.42-14.75-13.63-8.37-2.84-17.43.19-26,2.21-6.63,1.56-13.56,2.52-20.25,1.2S816,459.25,813,453.16c-4.47-9-.7-19.66-1-29.68a36,36,0,0,0-37-35.1,35.57,35.57,0,0,0-8.46,1.23c-8.24-2.38-15.7-2.6-20.8,3.74a24.17,24.17,0,0,0-24.18,24.18h23.12a23,23,0,0,0,3.49,17c4.09,6,11.18,10.34,12.55,17.46,1.32,6.91-3.37,13.46-8.29,18.48s-10.64,10-12.17,16.85a20.83,20.83,0,0,0,3,15,49.05,49.05,0,0,0,10.51,11.57,154.14,154.14,0,0,0,64.06,32.78c16.65,4,34.87,5.05,50.32-2.33a50,50,0,0,0,23.58-66.61C891.27,476.69,890.74,475.68,890.18,474.68Z"/><path class="cls-3" d="M895.4,941.92H625.12a1.42,1.42,0,1,1,0-2.84H895.4a1.42,1.42,0,1,1,0,2.84Z"/><text class="cls-9" transform="translate(55.67 917.84)">সস আর কই ?</text><text class="cls-9" transform="translate(127.23 825.33)">অঅঅই</text></svg>