<svg id="Layer_1" data-name="Layer 1" xmlns="http://www.w3.org/2000/svg" viewBox="0 0 1000 1000"><defs><style>.cls-1{fill:#ddbd9e;}.cls-2{fill:#ea3a3b;}.cls-3{fill:#302e41;}.cls-4{fill:#2b3990;}.cls-5{fill:#1b75bc;}.cls-6{fill:#27aae1;}.cls-7{fill:#403e56;}.cls-8{fill:#fab79c;}.cls-9{fill:#fff;}.cls-10{fill:#006838;}.cls-11{fill:#ccc;}</style></defs><title>home-1</title><path class="cls-1" d="M207.22,330.77l35.67,48.7s30.42,12.79,66,38.47l-8.51,13.28s-58.68-24-73.69-34.18l-27.42-43Z"/><ellipse class="cls-1" cx="315" cy="431.14" rx="10.93" ry="18.4" transform="translate(-218.69 447.97) rotate(-55.65)"/><path class="cls-2" d="M189.78,289.2l11.68-3.31a13.09,13.09,0,0,1,10.63,6.69c3.83,6.67,31,66.18,29.69,68.49s-3.08,2.81-.78,4.1,4.42.64,2.85,2.56.6,6.17.6,6.17L214.5,396,189.78,289.2Z"/><polygon class="cls-1" points="144.49 778.57 158.73 778.57 165.51 723.63 144.49 723.64 144.49 778.57"/><path class="cls-3" d="M193.29,778.25h0a12.35,12.35,0,0,1,.68,4h0a4.84,4.84,0,0,1-4.84,4.83H145a3.29,3.29,0,0,1-3.29-3.3V782s-2.19-5.52,2.31-12.33c0,0,5.58,5.33,13.92-3l2.46-4.46,17.81,13,9.87,1.21c2.16.27,4.08,0,5.19,1.83Z"/><polygon class="cls-1" points="196.04 764.69 210.09 767.05 225.87 714 205.14 710.52 196.04 764.69"/><path class="cls-3" d="M244.22,772.46h0a12.41,12.41,0,0,1,0,4.08h0a4.84,4.84,0,0,1-5.57,4l-43.5-7.31a3.28,3.28,0,0,1-2.7-3.8l.3-1.81s-1.24-5.8,4.32-11.77c0,0,4.62,6.18,14.23-.66l3.17-4L229.87,767l9.54,2.84c2.08.62,4,.63,4.81,2.66Z"/><path class="cls-3" d="M225.24,482.8s19.13,22.41,19.13,42.94.47,85,.47,85-11.2,100.71-14,109.11-4.2,22.4-4.2,22.4l-27.07-6.53S195.83,641,207,618.62L180,542.08l-9.33,216.56H139.2S123,644.76,131.42,614.89c0,0-18.67-113.88-14-120.42S225.24,482.8,225.24,482.8Z"/><path class="cls-2" d="M155.69,259.71l25.21,1.86,8.4,14s19.6,8.4,22.4,20.53,3.74,154,3.74,154l14,20.54-.94,17.73-112,5.6V477l-10.27-20.28s11.2-162.42,14-163.36,24.27-15.87,24.27-15.87l11.2-17.73Z"/><circle class="cls-1" cx="167.1" cy="224.5" r="31.74"/><path class="cls-3" d="M192.45,199a11.15,11.15,0,0,0-10.95-7.25h-.61c-2.45-.1-4.8-.93-7.19-1.42a25.82,25.82,0,0,0-13.5.87,12.9,12.9,0,0,1-4.1,1,3.31,3.31,0,0,1-3.31-2.15l-.24,3.74c-.46-1-.92-2-1.39-3l-.92,4-3-3.36a4.31,4.31,0,0,1-1.77,3.92,16.05,16.05,0,0,1-4,2.06c-6,2.54-11.57,7-13.29,13.31-1.09,3.95-.52,8.15.05,12.2.51,3.59,1.07,7.31,3,10.36,1.25,2,3,3.61,3.81,5.8s.44,4.39,1.45,6.31,3.11,3,5.16,3.74,4.22,1.25,6,2.52,3.81,4.94,7.65,4.74l1.24-2.33c1.28-1-3.44-.21-3.49-1.86s5.68-2.66,4.87-4.09c-1.25-2.2-2.93-4.11-4.34-6.21-1.64-2.45-2.93-5.32-2.36-8.31a6,6,0,0,1,1.59-3.11c2.4-2.44,5.07-1.37,7.66-1,1.79.24,3.92,0,4.85-1.59,1.09-1.81-.12-4.11,0-6.22s1.84-4.06,3.68-5.33,3.93-2.2,5.59-3.7,2.83-3.86,2.11-6c7.84-3.27,9-3.58,17.31-1.59a42.67,42.67,0,0,0-1.65-6.08Z"/><path class="cls-4" d="M58.47,604.89V508.55a9.34,9.34,0,0,1,10.31-9.28c24.35-3.28,47.28-1.72,68.06,7.18a4.27,4.27,0,0,1,4.27,4.27v96.67a4.28,4.28,0,0,1-4.27,4.27c-22.88-5.37-47-4-71.61,0a6.77,6.77,0,0,1-6.76-6.77Z"/><path class="cls-5" d="M58.47,613.46V516.11a9.33,9.33,0,0,1,9.33-9.33,132.41,132.41,0,0,1,69,0,4.27,4.27,0,0,1,4.27,4.27v95.68a4.28,4.28,0,0,1-4.26,4.27c-22.43-3.91-46.45-.11-71.62,9.23A6.77,6.77,0,0,1,58.47,613.46Z"/><path class="cls-6" d="M112.22,547H90.46a14.18,14.18,0,1,1,0-28.36h21.76a14.18,14.18,0,0,1,0,28.36Z"/><path class="cls-1" d="M132.18,355.8l-.84,50.26s-2.66,39.17-9.26,83.25l-15.74,1s1.93-68.82,1.23-86.94l1.11-40.22Z"/><ellipse class="cls-1" cx="115.07" cy="502.07" rx="10.93" ry="18.4" transform="translate(-16.99 4.2) rotate(-1.95)"/><path class="cls-2" d="M131.93,291.81l-12.12.44a13.08,13.08,0,0,0-8.06,9.63c-1.59,7.53-12.77,85.47-10.83,87.27s3.8,1.73,2,3.66-4,2-1.92,3.31,1.32,6.05,1.32,6.05l33.54-2.37-3.93-108Z"/><path class="cls-7" d="M932,740.86H609.38a18.37,18.37,0,0,1-5.51-.85l-.19-.08c-101-50.21-187.65-77.62-264.82-83.78l-.29-.06a18.2,18.2,0,0,1-12.76-17.42V207.49a18.27,18.27,0,0,1,23.78-17.42l255.08,80.68a15.35,15.35,0,0,0,4.71.73H932a18.3,18.3,0,0,1,18.27,18.27V722.58A18.3,18.3,0,0,1,932,740.86Zm-327.28-3.34a15.72,15.72,0,0,0,4.62.69H932a15.65,15.65,0,0,0,15.63-15.63V289.75A15.66,15.66,0,0,0,932,274.12H609.38a18.11,18.11,0,0,1-5.51-.85L348.79,192.59a15.64,15.64,0,0,0-20.34,14.9V638.67a15.58,15.58,0,0,0,10.78,14.86c77.44,6.21,164.3,33.69,265.53,84Z"/><path class="cls-8" d="M618,721.28c88-31.13,186.12-27.56,290.38-3.11A20.82,20.82,0,0,0,934,697.94V304a20.78,20.78,0,0,0-15.82-20.2c-110-26.9-212.72-31.85-303.26.11a20.93,20.93,0,0,1-19.6-3.19C519.05,222.62,441,193.5,360.55,202.14a20.76,20.76,0,0,0-18.45,20.68V621.09a20.8,20.8,0,0,0,18.67,20.68c86.56,9,166.09,36.29,240.06,78.07A20.84,20.84,0,0,0,618,721.28Z"/><path class="cls-9" d="M615.17,699.18a32.3,32.3,0,0,1-17.09-4.87c-62.12-38.58-129.8-61.12-201.15-67a32.72,32.72,0,0,1-29.83-32.48V254.65a32.42,32.42,0,0,1,30.82-32.57c51.95-2.42,115,20.75,198.51,72.89A30,30,0,0,0,620,298.56c79.33-21.29,165.33-21.91,262.9-1.9a32.78,32.78,0,0,1,26.14,32v332a32.64,32.64,0,0,1-40.31,31.69c-92.3-22-171.56-20.38-242.32,4.85h0a33.11,33.11,0,0,1-11.22,2ZM405.34,224.55q-3.69,0-7.3.17a29.79,29.79,0,0,0-28.3,29.93V594.84a30.08,30.08,0,0,0,27.4,29.85c71.78,5.9,139.85,28.57,202.33,67.37a30,30,0,0,0,26,2.68L626,696l-.44-1.24c71.24-25.42,151-27,243.81-4.94a30,30,0,0,0,25.7-5.66,29.72,29.72,0,0,0,11.36-23.46v-332a30.14,30.14,0,0,0-24-29.38c-97.16-19.93-182.76-19.32-261.68,1.86a32.64,32.64,0,0,1-25.65-3.9c-79.1-49.41-139.68-72.66-189.68-72.66Z"/><rect class="cls-9" x="608.36" y="300.54" width="2.64" height="398.04" transform="translate(-4.59 5.65) rotate(-0.53)"/><rect class="cls-7" x="483.66" y="208.68" width="2.64" height="194.93" transform="translate(41.99 670.4) rotate(-71.69)"/><rect class="cls-7" x="483.66" y="257.66" width="2.64" height="194.93" transform="translate(-4.52 704) rotate(-71.69)"/><rect class="cls-7" x="483.66" y="306.65" width="2.64" height="194.93" transform="translate(-51.03 737.59) rotate(-71.69)"/><rect class="cls-7" x="483.66" y="355.64" width="2.64" height="194.93" transform="translate(-97.53 771.19) rotate(-71.69)"/><rect class="cls-7" x="653.71" y="338.16" width="221.8" height="2.64"/><rect class="cls-7" x="653.71" y="384.42" width="221.8" height="2.64"/><rect class="cls-7" x="653.71" y="430.69" width="221.8" height="2.64"/><rect class="cls-7" x="653.71" y="476.95" width="221.8" height="2.64"/><rect class="cls-7" x="653.71" y="523.22" width="221.8" height="2.64"/><rect class="cls-7" x="653.71" y="569.48" width="221.8" height="2.64"/><path class="cls-10" d="M78.77,767.44a3,3,0,0,1-2.17-5.2l.2-.81a1.67,1.67,0,0,0-.08-.2,8,8,0,0,0-14.85.06c-2.43,5.85-5.53,11.71-6.29,17.9a23.74,23.74,0,0,0,.42,8.19,95.59,95.59,0,0,1-8.69-39.67,93.24,93.24,0,0,1,.57-10.29c.32-2.8.75-5.58,1.32-8.34a96.48,96.48,0,0,1,19.16-41A25.69,25.69,0,0,0,79.05,677a19.67,19.67,0,0,0,1.79-5.36c-.52.07-2-7.86-1.57-8.35-.73-1.1-2-1.65-2.82-2.72-3.94-5.34-9.37-4.41-12.21,2.85-6,3.06-6.11,8.13-2.39,13,2.36,3.1,2.69,7.3,4.76,10.62l-.65.81A97.18,97.18,0,0,0,55.81,704a40.38,40.38,0,0,0-2.41-18.78c-2.31-5.57-6.64-10.26-10.46-15.08-4.58-5.79-14-3.26-14.78,4.07,0,.07,0,.14,0,.22.57.32,1.12.65,1.66,1a4.07,4.07,0,0,1-1.64,7.41h-.08a38.92,38.92,0,0,0,1.07,6c-4.9,18.92,5.67,25.81,20.75,26.12.33.17.65.34,1,.5a98.95,98.95,0,0,0-5.35,25.15,94.07,94.07,0,0,0,.07,15.2l0-.18a24.9,24.9,0,0,0-8.5-14.36c-6.53-5.37-15.77-7.35-22.82-11.66a4.67,4.67,0,0,0-7.15,4.54l0,.19a26.86,26.86,0,0,1,3.06,1.47c.57.32,1.13.66,1.67,1a4.07,4.07,0,0,1-1.64,7.4l-.09,0-.17,0A40.25,40.25,0,0,0,17.44,756c3,16.52,16.19,18.08,30.25,13.27h0a99.83,99.83,0,0,0,6.67,19.46H78.18c.08-.26.16-.53.23-.8a27,27,0,0,1-6.59-.39L77.13,781l.11-.13c.89-1.11,1.8-2.21,2.69-3.32h0a39.45,39.45,0,0,0-1.16-10.1Z"/><path class="cls-11" d="M345.13,788.77a1.57,1.57,0,0,1-1.57,1.58H8.82a1.58,1.58,0,0,1,0-3.15H343.56A1.57,1.57,0,0,1,345.13,788.77Z"/><circle class="cls-2" cx="884.82" cy="674.78" r="30.4"/><path class="cls-9" d="M899.06,673.63,880.2,662.74a1.32,1.32,0,0,0-2,1.15v9.57h-5.66a1.32,1.32,0,1,0,0,2.64h5.66v9.57a1.32,1.32,0,0,0,2,1.14l18.86-10.89A1.32,1.32,0,0,0,899.06,673.63Z"/><path class="cls-9" d="M452,589.1a64,64,0,0,1,15.81-36.67,63.12,63.12,0,0,1,55.67-20.3c1.74.25,1.7,3-.07,2.77A61.19,61.19,0,0,0,486.94,541a60.43,60.43,0,0,0-32.18,48.12c-.15,1.78-2.93,1.72-2.77-.06Z"/><path class="cls-9" d="M520.39,521l21.36,10.54a1.39,1.39,0,0,1,.24,2.19l-20.22,16.72c-1.37,1.13-3.29-.87-1.91-2l20.22-16.72.24,2.2L519,523.37c-1.6-.79-.16-3.17,1.43-2.38Z"/></svg>